<svg width="44" height="37" viewBox="0 0 44 37" fill="none" xmlns="http://www.w3.org/2000/svg">
<g filter="url(#filter0_d_0_198)">
<path d="M0 18C0 8.05888 8.05888 0 18 0H26C35.9411 0 44 8.05888 44 18C44 27.9411 35.9411 36 26 36H18C8.05888 36 0 27.9411 0 18Z" fill="white" fill-opacity="0.04" shape-rendering="crispEdges"/>
<path d="M0.5 18C0.5 8.33502 8.33502 0.5 18 0.5H26C35.665 0.5 43.5 8.33502 43.5 18C43.5 27.665 35.665 35.5 26 35.5H18C8.33502 35.5 0.5 27.665 0.5 18Z" stroke="url(#paint0_linear_0_198)" shape-rendering="crispEdges"/>
<path fill-rule="evenodd" clip-rule="evenodd" d="M22.796 13.8136L32.5 11L30.0847 20.8107L27.0716 17.9181L22.2112 22.981C22.0462 23.1528 21.8183 23.25 21.58 23.25C21.3417 23.25 21.1138 23.1528 20.9488 22.981L17.38 19.2635L12.1312 24.731C11.7965 25.0796 11.2426 25.0909 10.894 24.7562C10.5454 24.4215 10.5341 23.8676 10.8688 23.519L16.7488 17.394C16.9138 17.2222 17.1417 17.125 17.38 17.125C17.6183 17.125 17.8462 17.2222 18.0112 17.394L21.58 21.1115L25.8091 16.7062L22.796 13.8136Z" fill="white"/>
</g>
<defs>
<filter id="filter0_d_0_198" x="0" y="0" width="44" height="37" filterUnits="userSpaceOnUse" color-interpolation-filters="sRGB">
<feFlood flood-opacity="0" result="BackgroundImageFix"/>
<feColorMatrix in="SourceAlpha" type="matrix" values="0 0 0 0 0 0 0 0 0 0 0 0 0 0 0 0 0 0 127 0" result="hardAlpha"/>
<feOffset dy="1"/>
<feComposite in2="hardAlpha" operator="out"/>
<feColorMatrix type="matrix" values="0 0 0 0 0 0 0 0 0 0 0 0 0 0 0 0 0 0 0.1 0"/>
<feBlend mode="normal" in2="BackgroundImageFix" result="effect1_dropShadow_0_198"/>
<feBlend mode="normal" in="SourceGraphic" in2="effect1_dropShadow_0_198" result="shape"/>
</filter>
<linearGradient id="paint0_linear_0_198" x1="14.2047" y1="-1.28571" x2="27.6824" y2="33.8947" gradientUnits="userSpaceOnUse">
<stop stop-color="white" stop-opacity="0.4"/>
<stop offset="0.4" stop-color="white" stop-opacity="0.01"/>
<stop offset="0.6" stop-color="white" stop-opacity="0.01"/>
<stop offset="1" stop-color="white" stop-opacity="0.1"/>
</linearGradient>
</defs>
</svg>
