<svg width="20" height="20" viewBox="0 0 20 20" fill="none" xmlns="http://www.w3.org/2000/svg">
<path fill-rule="evenodd" clip-rule="evenodd" d="M5.78244 2.17446C6.59127 1.83943 7.45818 1.66699 8.33366 1.66699C9.20914 1.66699 10.076 1.83943 10.8849 2.17446C11.6937 2.50949 12.4286 3.00056 13.0477 3.61961C13.6668 4.23867 14.1578 4.9736 14.4929 5.78244C14.8279 6.59127 15.0003 7.45818 15.0003 8.33366C15.0003 9.20914 14.8279 10.076 14.4929 10.8849C14.2647 11.4358 13.9641 11.9524 13.6 12.4215L18.0896 16.9111C18.415 17.2365 18.415 17.7641 18.0896 18.0896C17.7641 18.415 17.2365 18.415 16.9111 18.0896L12.4215 13.6C11.9524 13.9641 11.4358 14.2647 10.8849 14.4929C10.076 14.8279 9.20914 15.0003 8.33366 15.0003C7.45818 15.0003 6.59127 14.8279 5.78244 14.4929C4.9736 14.1578 4.23867 13.6668 3.61961 13.0477C3.00056 12.4286 2.50949 11.6937 2.17446 10.8849C1.83943 10.076 1.66699 9.20914 1.66699 8.33366C1.66699 7.45818 1.83943 6.59127 2.17446 5.78244C2.50949 4.9736 3.00056 4.23867 3.61961 3.61961C4.23867 3.00056 4.9736 2.50949 5.78244 2.17446ZM8.33366 3.33366C7.67705 3.33366 7.02687 3.46299 6.42024 3.71426C5.81361 3.96553 5.26242 4.33383 4.79812 4.79812C4.33383 5.26242 3.96553 5.81361 3.71426 6.42024C3.46299 7.02687 3.33366 7.67705 3.33366 8.33366C3.33366 8.99027 3.46299 9.64045 3.71426 10.2471C3.96553 10.8537 4.33383 11.4049 4.79812 11.8692C5.26242 12.3335 5.81361 12.7018 6.42024 12.9531C7.02687 13.2043 7.67705 13.3337 8.33366 13.3337C8.99027 13.3337 9.64045 13.2043 10.2471 12.9531C10.8537 12.7018 11.4049 12.3335 11.8692 11.8692C12.3335 11.4049 12.7018 10.8537 12.9531 10.2471C13.2043 9.64045 13.3337 8.99027 13.3337 8.33366C13.3337 7.67705 13.2043 7.02687 12.9531 6.42024C12.7018 5.81361 12.3335 5.26242 11.8692 4.79812C11.4049 4.33383 10.8537 3.96553 10.2471 3.71426C9.64045 3.46299 8.99027 3.33366 8.33366 3.33366Z" fill="#606060"/>
</svg>
