<svg width="143" height="47" viewBox="0 0 143 47" fill="none" xmlns="http://www.w3.org/2000/svg">
<path fill-rule="evenodd" clip-rule="evenodd" d="M74.0667 46.1112C72.4098 47.2947 69.7235 47.2947 68.0667 46.1112L63.7966 43.2103C63.2457 42.836 62.9702 42.6489 62.6714 42.5162C62.4061 42.3985 62.1278 42.3129 61.8423 42.2612C61.5206 42.203 61.1875 42.203 60.5215 42.203H16.6653C10.8704 42.203 8.76902 41.8692 6.6505 41.2422C4.53198 40.6152 2.86936 39.6952 1.73636 38.5229C0.603367 37.3506 0 36.1878 0 32.9811V9.22191C0 6.01525 0.603367 4.85244 1.73636 3.68013C2.86936 2.50783 4.53198 1.58779 6.6505 0.960836C8.76902 0.33388 10.8704 0 16.6653 0H126.335C132.13 0 134.231 0.33388 136.35 0.960836C138.468 1.58779 140.131 2.50783 141.264 3.68013C142.397 4.85244 143 6.01525 143 9.22191V32.9811C143 36.1878 142.397 37.3506 141.264 38.5229C140.131 39.6952 138.468 40.6152 136.35 41.2422C134.231 41.8692 132.13 42.203 126.335 42.203H83.4044C82.0722 42.203 81.4062 42.203 80.7627 42.3195C80.1917 42.4228 79.635 42.594 79.1046 42.8294C78.5069 43.0947 77.956 43.469 76.8541 44.2176L74.0667 46.1112Z" fill="white"/>
</svg>
