<svg width="267" height="287" viewBox="0 0 267 287" fill="none" xmlns="http://www.w3.org/2000/svg">
<g clip-path="url(#clip0_523_23371)">
<path d="M250.843 218.515H50.4064C46.6879 218.51 43.6745 215.497 43.6702 211.778V48.5713C43.6745 44.8528 46.6879 41.8394 50.4064 41.8351H250.843C254.561 41.8394 257.575 44.8528 257.579 48.5713V211.778C257.575 215.497 254.561 218.51 250.843 218.515Z" fill="#E6E6E6"/>
<path d="M231.367 213.97H54.9503C51.2318 213.965 48.2184 210.952 48.2141 207.233V53.1171C48.2184 49.3986 51.2318 46.3852 54.9503 46.3809H246.298C250.017 46.3852 253.03 49.3986 253.034 53.1171V192.302C253.021 204.263 243.328 213.956 231.367 213.97Z" fill="white"/>
<path d="M182.889 81.2308H102.329C101.37 81.2308 100.592 80.453 100.592 79.4935C100.592 78.5341 101.37 77.7562 102.329 77.7562H182.889C183.849 77.7562 184.627 78.5341 184.627 79.4935C184.627 80.453 183.849 81.2308 182.889 81.2308Z" fill="#004FBE"/>
<path d="M223.67 99.766H102.329C101.37 99.766 100.592 98.9882 100.592 98.0287C100.592 97.0692 101.37 96.2914 102.329 96.2914H223.67C224.63 96.2914 225.408 97.0692 225.408 98.0287C225.408 98.9882 224.63 99.766 223.67 99.766Z" fill="#E6E6E6"/>
<path d="M223.67 118.301H102.329C101.37 118.301 100.592 117.523 100.592 116.564C100.592 115.604 101.37 114.827 102.329 114.827H223.67C224.63 114.827 225.408 115.604 225.408 116.564C225.408 117.523 224.63 118.301 223.67 118.301Z" fill="#E6E6E6"/>
<path d="M223.67 136.836H102.329C101.37 136.836 100.592 136.059 100.592 135.099C100.592 134.14 101.37 133.362 102.329 133.362H223.67C224.63 133.362 225.408 134.14 225.408 135.099C225.408 136.059 224.63 136.836 223.67 136.836Z" fill="#E6E6E6"/>
<path d="M223.67 155.371H102.329C101.37 155.371 100.592 154.594 100.592 153.634C100.592 152.675 101.37 151.897 102.329 151.897H223.67C224.63 151.897 225.408 152.675 225.408 153.634C225.408 154.594 224.63 155.371 223.67 155.371Z" fill="#E6E6E6"/>
<path d="M64.2914 194.051C65.6232 192.937 65.7996 190.954 64.6854 189.622C64.5666 189.48 64.4355 189.349 64.2936 189.23L62.3863 172.75L56.3306 174.152L59.696 189.774C58.6656 191.183 58.9727 193.161 60.3819 194.191C61.561 195.053 63.1772 194.995 64.2914 194.051Z" fill="#FFB6B6"/>
<path d="M63.6664 175.436L56.6555 179.81C56.6555 179.81 56.2288 182.373 55.7467 175.931C55.6963 175.259 56.1655 174.087 56.1139 173.397C56.0557 172.619 53.8255 172.264 53.7667 171.477C53.7249 170.916 54.3697 170.417 54.328 169.858C54.265 169.01 54.2023 168.168 54.1408 167.339C54.0893 166.645 53.3212 166.206 53.2717 165.537C53.2218 164.862 53.8905 163.958 53.8433 163.318C53.49 158.522 54.712 146.457 54.712 146.212C54.6176 145.596 54.3604 145.016 53.967 144.533L54.3412 143.414L54.0937 141.314C53.7686 138.554 54.3487 135.764 55.7467 133.363L57.5272 132.197L65.7428 146.015C62.2855 157.973 60.0288 162.67 63.6664 175.436Z" fill="#004FBE"/>
<path d="M58.1941 278.47H62.4351L64.4536 262.111H58.1941V278.47Z" fill="#FFB6B6"/>
<path d="M56.8116 275.567L63.5873 275.162V278.065L70.029 282.514C70.8531 283.083 71.0599 284.213 70.4909 285.037C70.1524 285.527 69.5945 285.82 68.9986 285.82H60.932L59.5416 282.948L58.9987 285.82H55.9573L56.8116 275.567Z" fill="#2F2E41"/>
<path d="M82.0177 278.47H86.2587L88.2768 262.111H82.0177V278.47Z" fill="#FFB6B6"/>
<path d="M80.6333 275.567L87.409 275.162V278.065L93.8507 282.514C94.6748 283.083 94.8816 284.213 94.3126 285.037C93.9741 285.527 93.4162 285.82 92.8203 285.82H84.7537L83.3633 282.948L82.8204 285.82H79.779L80.6333 275.567Z" fill="#2F2E41"/>
<path d="M56.3946 264.364H56.4111L57.2268 225.406C56.1547 223.339 56.189 220.871 57.318 218.834L57.4348 218.623L57.132 217.219C56.7432 215.416 56.9216 213.536 57.6429 211.839L58.4038 187.028C55.6854 169.41 68.6406 157.92 68.6406 157.92H88.0478L92.2142 172.235C94.9686 199.071 94.4689 237.58 90.098 262.915L90.2171 262.976C90.6866 263.237 90.8676 263.822 90.6283 264.303C90.4263 264.888 89.9148 265.243 89.4857 265.094L79.2366 264.738C78.7671 264.476 78.5861 263.892 78.8254 263.41C79.0274 262.825 79.5389 262.471 79.968 262.619L80.6649 262.972L79.9458 261.508C79.0639 259.712 79.2344 257.578 80.3903 255.946L80.2643 252.724C79.1747 251.448 78.8125 249.703 79.304 248.099L79.9954 245.843L79.1787 224.946L79.3436 220.258L79.0038 214.939L77.4328 191.016L71.4863 220.435L65.4122 264.66C65.7095 264.928 65.84 265.335 65.7539 265.726C65.6249 266.251 65.1495 266.616 64.6094 266.606H56.365C55.7448 266.605 55.2424 266.102 55.243 265.481C55.2431 265.381 55.2567 265.281 55.2834 265.184C55.4265 264.691 55.8817 264.355 56.3946 264.364Z" fill="#2F2E41"/>
<path d="M103.556 187.649C104.652 186.302 104.449 184.322 103.102 183.226C102.958 183.109 102.804 183.005 102.643 182.916L97.6386 167.098L91.9596 169.625L98.232 184.323C97.4881 185.902 98.1654 187.786 99.7448 188.53C101.066 189.152 102.642 188.788 103.556 187.649Z" fill="#FFB6B6"/>
<path d="M82.967 137.362C82.967 137.362 88.6741 157.558 88.4156 159.599C87.8826 163.806 61.657 176.738 59.7066 170.983L59.9511 169.092C58.9658 167.121 64.9772 159.3 65.2691 158.277C65.6398 156.969 63.961 152.674 63.961 152.674C63.961 152.674 65.1214 148.753 64.936 146.326C64.7472 143.899 64.1876 144.273 62.1346 142.776C60.0816 141.283 56.7205 134.375 56.7205 134.375C56.7205 134.375 58.2139 127.653 58.2139 126.345C58.2139 125.037 64.349 122.809 65.094 122.064C65.4183 121.631 65.6913 121.162 65.9076 120.667C66.0587 120.365 65.9626 119.664 66.1239 119.317C66.2269 119.091 66.5874 119.232 66.6939 118.998C66.7968 118.772 66.7076 118.511 66.8106 118.287C66.9445 117.992 67.2672 117.735 67.3942 117.457C67.9778 116.18 68.4757 115.139 68.6301 115.139C69.0009 115.139 80.9552 116.822 80.9552 116.822C81.6058 117.828 82.3558 118.766 83.1936 119.623C84.5017 120.928 90.623 124.103 90.623 124.103L82.967 137.362Z" fill="#004FBE"/>
<path d="M99.1079 171.338C98.1741 172.272 93.5532 176.559 93.3643 175.437C93.179 174.318 93.078 174.184 92.3296 173.813C91.5812 173.439 91.5812 173.253 91.3958 171.945C91.2104 170.637 89.5281 169.329 89.717 168.77C89.9024 168.21 89.7293 168.922 89.7293 168.359C89.7293 167.799 89.1697 165.746 88.4213 165.372C87.6763 164.998 86.5536 164.627 87.1167 163.693C87.6763 162.759 81.8467 134.745 81.8467 134.745L87.0755 124.476L90.6219 124.102C90.6219 124.102 91.6995 124.719 92.0372 130.278C92.0543 130.559 92.3613 131.076 92.3744 131.383C92.3852 131.639 92.1028 131.681 92.1106 131.955C92.1122 132.014 92.1139 132.073 92.1154 132.132C92.1224 132.405 92.8583 132.605 92.8694 132.868C92.8891 133.338 93.1782 136.335 93.2093 136.776C93.2444 137.273 93.2859 137.751 93.3337 138.211C93.8497 143.221 94.0345 143.644 94.3543 145.243C94.8493 147.718 96.9012 162.172 96.9012 162.172C96.9012 162.172 98.3946 162.543 98.3946 163.851C98.3946 165.159 100.042 167.788 99.2967 169.282C98.5483 170.779 100.042 170.404 99.1079 171.338Z" fill="#004FBE"/>
<path d="M73.692 114.756C78.5836 114.756 82.549 110.79 82.549 105.899C82.549 101.007 78.5836 97.0419 73.692 97.0419C68.8004 97.0419 64.835 101.007 64.835 105.899C64.835 110.79 68.8004 114.756 73.692 114.756Z" fill="#FFB8B8"/>
<path d="M54.6044 124.514C52.7301 123.849 50.8558 123.184 48.9816 122.517C49.3046 121.975 49.716 121.491 50.1988 121.085C51.9833 119.595 54.4464 119.325 56.7121 118.823C58.9813 118.32 61.4444 117.289 62.2739 115.121C63.1356 112.866 61.8861 110.431 61.1608 108.134C60.0895 104.91 60.2196 101.409 61.527 98.2738C62.8808 95.1356 65.6193 92.8073 68.9344 91.9759C72.2162 91.247 75.9252 92.4355 77.9431 95.1213C80.6337 94.3141 83.5034 95.6426 84.6288 98.2163C85.1479 99.3987 85.0678 100.758 84.4134 101.872C83.7132 102.931 82.2159 103.473 81.0885 102.884L81.742 101.225C79.7205 101.911 78.4063 105.566 78.6792 107.685C78.9485 109.8 80.1837 111.652 81.4368 113.379C82.6899 115.106 84.0256 116.851 84.5642 118.916C85.3397 121.885 84.2913 125.131 82.3524 127.512C80.4135 129.892 77.681 131.508 74.8517 132.697C72.7337 133.587 70.5327 134.265 68.2809 134.722C68.6831 133.939 69.0816 133.156 69.4837 132.374L64.7119 135.26C63.7891 135.35 62.8591 135.404 61.9292 135.422C59.2219 135.469 56.4608 135.185 53.9832 134.104C51.5022 133.02 49.3227 131.056 48.425 128.503C48.1372 127.677 48.001 126.806 48.0229 125.932C50.2167 125.458 52.4105 124.985 54.6044 124.514Z" fill="#2F2E41"/>
<path d="M140.197 286.492H123.77L123.7 286.364C123.49 285.983 123.287 285.58 123.098 285.165C121.406 281.542 120.69 277.399 120.059 273.744L119.584 270.989C119.424 270.063 120.046 269.183 120.971 269.023C121.425 268.945 121.89 269.054 122.262 269.324C124.758 271.141 127.256 272.956 129.754 274.769C130.7 275.457 131.781 276.254 132.815 277.115C132.915 276.63 133.019 276.143 133.124 275.664C133.324 274.745 134.23 274.162 135.149 274.362C135.599 274.46 135.99 274.736 136.233 275.126L138.155 278.214C139.556 280.469 140.794 282.691 140.542 285.088C140.543 285.117 140.541 285.146 140.535 285.175C140.485 285.569 140.391 285.956 140.256 286.329L140.197 286.492Z" fill="#F0F0F0"/>
<path d="M156.684 286.848L0.587283 287C0.261787 286.998 -0.000707518 286.733 0.000985323 286.407C0.00267816 286.084 0.264187 285.823 0.587283 285.821L156.684 285.669C157.009 285.671 157.272 285.936 157.27 286.262C157.268 286.585 157.007 286.846 156.684 286.848Z" fill="#CACACA"/>
<path d="M224.042 176.896C224.418 172.352 221.039 168.363 216.495 167.987C211.95 167.611 207.962 170.99 207.585 175.534C207.209 180.079 210.588 184.068 215.133 184.444C219.677 184.82 223.666 181.441 224.042 176.896Z" fill="#004FBE"/>
<path d="M217.982 172.771L215.813 174.94L213.645 172.771C213.293 172.42 212.724 172.42 212.373 172.771C212.022 173.122 212.022 173.691 212.373 174.042L214.542 176.211L212.373 178.38C212.022 178.731 212.023 179.301 212.374 179.651C212.725 180.002 213.294 180.002 213.645 179.651L215.813 177.483L217.982 179.651C218.334 180.002 218.903 180.002 219.254 179.65C219.604 179.299 219.604 178.731 219.254 178.38L217.085 176.211L219.254 174.042C219.605 173.691 219.605 173.122 219.254 172.771C218.903 172.42 218.333 172.42 217.982 172.771Z" fill="white"/>
</g>
<defs>
<clipPath id="clip0_523_23371">
<rect width="266.486" height="286.819" fill="white" transform="scale(1.00063)"/>
</clipPath>
</defs>
</svg>
